<mxfile host="app.diagrams.net" modified="2021-08-15T09:45:27.321Z" agent="5.0 (Windows NT 10.0; Win64; x64) AppleWebKit/537.36 (KHTML, like Gecko) Chrome/92.0.4515.131 Safari/537.36" etag="Po2RhTCfXfl8hggrM2YB" version="14.9.6" type="github" pages="2">
  <diagram id="C5RBs43oDa-KdzZeNtuy" name="Page-1">
    <mxGraphModel dx="785" dy="1453" grid="0" gridSize="10" guides="1" tooltips="1" connect="1" arrows="1" fold="1" page="1" pageScale="1" pageWidth="1169" pageHeight="1654" background="none" math="0" shadow="0">
      <root>
        <mxCell id="WIyWlLk6GJQsqaUBKTNV-0" />
        <mxCell id="WIyWlLk6GJQsqaUBKTNV-1" parent="WIyWlLk6GJQsqaUBKTNV-0" />
        <mxCell id="NWwCCXo0G8Mbg0RU5Ook-2" value="«interface»&lt;br&gt;&lt;br&gt;ApplicationContext" style="rounded=0;fontColor=#330000;labelBorderColor=none;fontFamily=Comic Sans MS;sketch=1;html=1;" parent="WIyWlLk6GJQsqaUBKTNV-1" vertex="1">
          <mxGeometry x="452" y="691" width="196" height="50" as="geometry" />
        </mxCell>
        <mxCell id="NWwCCXo0G8Mbg0RU5Ook-7" value="«interface»&lt;br&gt;&lt;br&gt;BeanFactory" style="rounded=0;fontColor=#330000;labelBorderColor=none;fontFamily=Comic Sans MS;sketch=1;html=1;" parent="WIyWlLk6GJQsqaUBKTNV-1" vertex="1">
          <mxGeometry x="253" y="572" width="88" height="50" as="geometry" />
        </mxCell>
        <mxCell id="Br0KtUnbyzDU3fqf9A_Y-1" value="«interface»&lt;br&gt;&lt;br&gt;EnvironmentCapable" style="rounded=0;fontColor=#330000;labelBorderColor=none;fontFamily=Comic Sans MS;sketch=1;html=1;" parent="WIyWlLk6GJQsqaUBKTNV-1" vertex="1">
          <mxGeometry x="369" y="572" width="127" height="50" as="geometry" />
        </mxCell>
        <mxCell id="Br0KtUnbyzDU3fqf9A_Y-2" value="«interface»&lt;br&gt;&lt;br&gt;ApplicationEventPublisher" style="rounded=0;fontColor=#330000;labelBorderColor=none;fontFamily=Comic Sans MS;sketch=1;html=1;" parent="WIyWlLk6GJQsqaUBKTNV-1" vertex="1">
          <mxGeometry x="533" y="572" width="153" height="50" as="geometry" />
        </mxCell>
        <mxCell id="Br0KtUnbyzDU3fqf9A_Y-4" value="«interface»&lt;br&gt;&lt;br&gt;ResourceLoader" style="rounded=0;fontColor=#330000;labelBorderColor=none;fontFamily=Comic Sans MS;sketch=1;html=1;" parent="WIyWlLk6GJQsqaUBKTNV-1" vertex="1">
          <mxGeometry x="712" y="572" width="125" height="50" as="geometry" />
        </mxCell>
        <mxCell id="293zWkPixVAWd7RYmudV-15" value="Extends" style="endArrow=block;endSize=16;endFill=0;fontFamily=Comic Sans MS;fontColor=#330000;exitX=0.5;exitY=0;exitDx=0;exitDy=0;sketch=1;entryX=0.5;entryY=1;entryDx=0;entryDy=0;shadow=1;edgeStyle=elbowEdgeStyle;elbow=vertical;html=1;" parent="WIyWlLk6GJQsqaUBKTNV-1" source="NWwCCXo0G8Mbg0RU5Ook-2" edge="1" target="NWwCCXo0G8Mbg0RU5Ook-7">
          <mxGeometry width="160" relative="1" as="geometry">
            <mxPoint x="746.74" y="759.8499999999999" as="sourcePoint" />
            <mxPoint x="310" y="529" as="targetPoint" />
          </mxGeometry>
        </mxCell>
        <mxCell id="u799gAz1fWXYaJbpQg0k-3" value="Extends" style="endArrow=block;endSize=16;endFill=0;entryX=0.5;entryY=1;entryDx=0;entryDy=0;sketch=1;edgeStyle=elbowEdgeStyle;elbow=vertical;html=1;" edge="1" parent="WIyWlLk6GJQsqaUBKTNV-1" source="NWwCCXo0G8Mbg0RU5Ook-2" target="Br0KtUnbyzDU3fqf9A_Y-4">
          <mxGeometry width="160" relative="1" as="geometry">
            <mxPoint x="543" y="880" as="sourcePoint" />
            <mxPoint x="941" y="681" as="targetPoint" />
          </mxGeometry>
        </mxCell>
        <mxCell id="u799gAz1fWXYaJbpQg0k-4" value="Extends" style="endArrow=block;endSize=16;endFill=0;entryX=0.595;entryY=0.954;entryDx=0;entryDy=0;entryPerimeter=0;exitX=0.5;exitY=0;exitDx=0;exitDy=0;sketch=1;edgeStyle=elbowEdgeStyle;elbow=vertical;html=1;" edge="1" parent="WIyWlLk6GJQsqaUBKTNV-1" source="NWwCCXo0G8Mbg0RU5Ook-2" target="Br0KtUnbyzDU3fqf9A_Y-2">
          <mxGeometry width="160" relative="1" as="geometry">
            <mxPoint x="543" y="880" as="sourcePoint" />
            <mxPoint x="703" y="880" as="targetPoint" />
          </mxGeometry>
        </mxCell>
        <mxCell id="u799gAz1fWXYaJbpQg0k-5" value="Extends" style="endArrow=block;endSize=16;endFill=0;entryX=0.5;entryY=1;entryDx=0;entryDy=0;sketch=1;edgeStyle=elbowEdgeStyle;elbow=vertical;html=1;exitX=0.5;exitY=0;exitDx=0;exitDy=0;" edge="1" parent="WIyWlLk6GJQsqaUBKTNV-1" source="NWwCCXo0G8Mbg0RU5Ook-2" target="Br0KtUnbyzDU3fqf9A_Y-1">
          <mxGeometry width="160" relative="1" as="geometry">
            <mxPoint x="564" y="854" as="sourcePoint" />
            <mxPoint x="700" y="1021" as="targetPoint" />
          </mxGeometry>
        </mxCell>
      </root>
    </mxGraphModel>
  </diagram>
  <diagram id="8eHLpkqZHll3zNGSEcId" name="Page-2">
    <mxGraphModel dx="765" dy="1778" grid="1" gridSize="10" guides="1" tooltips="1" connect="1" arrows="1" fold="1" page="1" pageScale="1" pageWidth="827" pageHeight="1169" math="0" shadow="0">
      <root>
        <mxCell id="g-5nnXZvuwmJgX9c6YtO-0" />
        <mxCell id="g-5nnXZvuwmJgX9c6YtO-1" parent="g-5nnXZvuwmJgX9c6YtO-0" />
      </root>
    </mxGraphModel>
  </diagram>
</mxfile>
